<svg viewBox="0 0 279 104" xmlns="http://www.w3.org/2000/svg">
    <path d="M 24 54.25 C 25.444 54.017 26.904 53.904 28.367 53.91 C 30.136 53.778 31.893 54.301 33.302 55.38 C 34.335 56.32 34.907 57.663 34.87 59.06 C 34.939 60.448 34.45 61.806 33.511 62.83 C 32.053 64.176 30.109 64.873 28.127 64.76 C 27.517 64.776 26.907 64.726 26.308 64.61 L 26.308 71.61 L 24.03 71.61 Z M 26.278 62.75 C 26.895 62.888 27.525 62.948 28.157 62.93 C 30.894 62.93 32.573 61.57 32.573 59.19 C 32.573 56.81 30.894 55.72 28.416 55.72 C 27.699 55.697 26.982 55.757 26.278 55.9 Z" style="fill:#fff;"/>
    <path d="M 38.387 54 L 40.686 54 L 40.686 69.76 L 48.21 69.76 L 48.21 71.66 L 38.387 71.66 Z" style="fill:#fff;"/>
    <path d="M 52.585 54 L 52.585 64.5 C 52.585 68.42 54.334 70.1 56.682 70.1 C 59.27 70.1 60.968 68.37 60.968 64.5 L 60.968 54 L 63.266 54 L 63.266 64.3 C 63.266 69.72 60.419 71.91 56.602 71.91 C 52.995 71.91 50.287 69.91 50.287 64.38 L 50.287 54 Z" style="fill:#fff;"/>
    <path d="M 67.432 68.89 C 68.655 69.631 70.06 70.015 71.489 70 C 73.807 70 75.166 68.77 75.166 67 C 75.166 65.23 74.227 64.41 71.849 63.52 C 68.971 62.47 67.202 60.96 67.202 58.52 C 67.202 55.77 69.47 53.74 72.888 53.74 C 74.232 53.696 75.566 53.992 76.765 54.6 L 76.135 56.45 C 75.121 55.888 73.977 55.602 72.818 55.62 C 70.41 55.62 69.5 57.06 69.5 58.26 C 69.5 59.91 70.57 60.72 72.998 61.66 C 75.995 62.81 77.464 64.25 77.464 66.83 C 77.464 69.41 75.466 71.93 71.329 71.93 C 69.761 71.943 68.217 71.554 66.844 70.8 Z" style="fill:#fff;"/>
    <path d="M 87.145 54 L 89.443 54 L 89.443 69.76 L 96.957 69.76 L 96.957 71.66 L 87.145 71.66 Z" style="fill:#fff;"/>
    <path d="M 114.033 62.67 C 114.033 68.67 110.346 71.95 105.859 71.95 C 101.183 71.95 97.947 68.32 97.947 62.95 C 97.947 57.36 101.393 53.7 106.099 53.7 C 110.805 53.7 114.033 57.42 114.033 62.67 Z M 100.345 62.93 C 100.345 66.72 102.342 70.1 105.989 70.1 C 109.636 70.1 111.635 66.78 111.635 62.77 C 111.635 59.25 109.806 55.59 106.019 55.59 C 102.232 55.59 100.345 59.09 100.345 62.93 Z" style="fill:#fff;"/>
    <path d="M 119.797 54 L 119.797 71.66 L 117.5 71.66 L 117.5 54 Z" style="fill:#fff;"/>
    <path d="M 124.253 71.66 L 124.253 54 L 126.791 54 L 132.377 63 C 133.546 64.837 134.592 66.747 135.513 68.72 L 135.593 68.72 C 135.383 66.36 135.334 64.22 135.334 61.48 L 135.334 54 L 137.472 54 L 137.472 71.66 L 135.174 71.66 L 129.589 62.72 C 128.37 60.835 127.279 58.871 126.322 56.84 L 126.242 56.84 C 126.372 59.06 126.402 61.18 126.402 64.1 L 126.402 71.63 Z" style="fill:#fff;"/>
    <path d="M 140.389 74.9 C 141.089 72.858 141.614 70.761 141.958 68.63 L 144.516 68.37 C 143.897 70.566 143.056 72.694 142.008 74.72 Z" style="fill:#fff;"/>
    <path d="M 156.765 66.12 L 154.937 71.66 L 152.579 71.66 L 158.574 54.04 L 161.292 54.04 L 167.287 71.66 L 164.859 71.66 L 162.98 66.12 Z M 162.561 64.34 L 160.812 59.27 C 160.422 58.12 160.163 57.08 159.903 56.05 L 159.903 56.05 C 159.633 57.05 159.373 58.17 159.013 59.25 L 157.285 64.34 Z" style="fill:#fff;"/>
    <path d="M 172.911 71.66 L 167.147 54 L 169.624 54 L 172.372 62.68 C 173.101 65.06 173.751 67.21 174.25 69.27 L 174.25 69.27 C 174.75 67.27 175.449 65.01 176.249 62.71 L 179.246 54 L 181.744 54 L 175.449 71.62 Z" style="fill:#fff;"/>
    <path d="M 193.224 63.4 L 186.409 63.4 L 186.409 69.76 L 194.033 69.76 L 194.033 71.66 L 184.112 71.66 L 184.112 54 L 193.644 54 L 193.644 56 L 186.409 56 L 186.409 61.57 L 193.224 61.57 Z" style="fill:#fff;"/>
    <path d="M 209.78 71.12 C 208.303 71.721 206.716 72.003 205.123 71.95 C 200.128 71.95 196.451 68.81 196.451 63.01 C 196.451 57.47 200.188 53.76 205.653 53.76 C 207.086 53.704 208.513 53.971 209.83 54.54 L 209.26 56.4 C 208.155 55.89 206.949 55.637 205.733 55.66 C 201.597 55.66 198.859 58.3 198.859 62.93 C 198.859 67.27 201.347 70.02 205.593 70.02 C 206.876 70.041 208.149 69.792 209.33 69.29 Z" style="fill:#fff;"/>
    <path d="M 222.139 71.66 L 216.374 54 L 218.852 54 L 221.589 62.68 C 222.329 65.06 222.978 67.21 223.478 69.27 L 223.528 69.27 C 224.027 67.27 224.727 65.01 225.526 62.71 L 228.524 54 L 230.952 54 L 224.707 71.66 Z" style="fill:#fff;"/>
    <path d="M 248.407 62.67 C 248.407 68.67 244.73 71.95 240.233 71.95 C 235.558 71.95 232.321 68.32 232.321 62.95 C 232.321 57.36 235.768 53.7 240.473 53.7 C 245.179 53.7 248.407 57.42 248.407 62.67 Z M 234.699 62.93 C 234.699 66.72 236.696 70.1 240.333 70.1 C 243.97 70.1 245.979 66.78 245.979 62.77 C 245.979 59.25 244.15 55.59 240.363 55.59 C 236.576 55.59 234.699 59.09 234.699 62.93 Z" style="fill:#fff;"/>
    <path d="M 254.141 54 L 254.141 64.5 C 254.141 68.42 255.89 70.1 258.248 70.1 C 260.836 70.1 262.524 68.37 262.524 64.5 L 262.524 54 L 264.822 54 L 264.822 64.3 C 264.822 69.72 261.985 71.91 258.168 71.91 C 254.561 71.91 251.844 69.91 251.844 64.38 L 251.844 54 Z" style="fill:#fff;"/>
    <path d="M 268.999 68.89 C 270.198 69.636 271.582 70.034 272.995 70.04 C 275.323 70.04 276.682 68.81 276.682 67.04 C 276.682 65.27 275.683 64.45 273.365 63.56 C 270.487 62.51 268.709 61 268.709 58.56 C 268.709 55.81 270.986 53.78 274.404 53.78 C 275.745 53.737 277.075 54.033 278.271 54.64 L 277.661 56.47 C 276.647 55.907 275.503 55.621 274.344 55.64 C 271.946 55.64 271.026 57.08 271.026 58.28 C 271.026 59.93 272.096 60.74 274.534 61.68 C 277.531 62.83 279 64.27 279 66.85 C 279 69.43 277.002 71.95 272.855 71.95 C 271.285 71.959 269.741 71.563 268.37 70.8 Z" style="fill:#fff;"/>
</svg>