<svg viewBox="0 0 344 104" xmlns="http://www.w3.org/2000/svg">
    <polyline points="47.484 50.7 57.269 46.31 58.728 49.85 48.234 52.35 47.484 50.7" style="fill:#fff;"/>
    <path d="M 20.599 55.45 C 20.199 53.05 17.43 51.21 14.262 51.21 C 8.535 51.21 6.377 55.28 6.377 59.52 C 6.377 63.52 8.535 67.62 14.262 67.62 C 18.17 67.62 20.359 65.38 20.849 62.19 L 26.985 62.19 C 26.336 68.19 21.338 72.09 14.222 72.09 C 5.287 72.09 0 66.5 0 59.52 C 0 52.34 5.287 46.74 14.262 46.74 C 20.649 46.74 26.006 49.86 26.775 55.45 L 20.599 55.45" style="fill:#fff;"/>
    <path d="M 28.604 54 L 34.091 54 L 34.091 57.25 L 34.161 57.25 C 35.221 55.05 38.069 53.53 40.868 53.53 C 41.292 53.531 41.715 53.584 42.127 53.69 L 42.127 58.16 C 41.443 58.05 40.751 57.997 40.058 58 C 35.83 58 34.371 60.54 34.371 63.63 L 34.371 71.52 L 28.604 71.52 L 28.604 54" style="fill:#fff;"/>
    <path d="M 47.524 63.92 C 47.694 66.92 49.523 68.36 52.701 68.36 C 55.01 68.36 56.879 67.17 57.249 66.09 L 62.326 66.09 C 60.697 70.22 57.249 72 52.491 72 C 45.865 72 41.767 68.21 41.767 62.79 C 41.767 57.54 46.115 53.55 52.491 53.55 C 59.647 53.55 63.095 58.55 62.696 63.94 L 47.524 63.94 M 56.969 60.87 C 56.449 58.43 55.18 57.14 52.381 57.14 C 48.723 57.14 47.664 59.52 47.574 60.87 Z" style="fill:#fff;"/>
    <path d="M 80.006 69.28 L 79.956 69.28 C 78.617 71.17 76.268 71.98 73.58 71.98 C 67.243 71.98 64.155 67.45 64.155 62.6 C 64.155 57.75 67.283 53.53 73.46 53.53 C 75.83 53.412 78.127 54.367 79.716 56.13 L 79.716 56.13 L 79.716 47.32 L 85.483 47.32 L 85.483 71.51 L 80.006 71.51 L 80.006 69.28 M 74.959 57.14 C 71.181 57.14 69.882 59.86 69.882 62.74 C 69.882 65.62 71.391 68.36 74.959 68.36 C 78.787 68.36 79.956 65.58 79.956 62.7 C 79.956 59.82 78.717 57.14 74.959 57.14 Z" style="fill:#fff;"/>
    <path d="M 93.439 51.29 L 87.672 51.29 L 87.672 47.29 L 93.439 47.29 Z M 87.662 54 L 93.439 54 L 93.439 71.51 L 87.662 71.51 Z" style="fill:#fff;"/>
    <polyline points="97.816 71.49 97.816 58.56 95.258 58.56 95.258 54 97.816 54 97.816 48.74 103.583 48.74 103.583 54 107.271 54 107.271 58.56 103.583 58.56 103.583 71.49 97.816 71.49" style="fill:#fff;"/>
    <path d="M 132.008 69.28 L 131.928 69.28 C 130.598 71.17 128.24 71.98 125.551 71.98 C 119.215 71.98 116.126 67.45 116.126 62.6 C 116.126 57.75 119.255 53.53 125.431 53.53 C 127.801 53.412 130.099 54.367 131.688 56.13 L 131.688 56.13 L 131.688 47.32 L 137.465 47.32 L 137.465 71.51 L 131.978 71.51 L 131.978 69.28 M 126.98 57.14 C 123.192 57.14 121.893 59.86 121.893 62.74 C 121.893 65.62 123.392 68.36 126.98 68.36 C 130.798 68.36 131.978 65.58 131.978 62.7 C 131.978 59.82 130.698 57.14 126.93 57.14 Z" style="fill:#fff;"/>
    <path d="M 159.383 71.51 L 153.916 71.51 L 153.916 69.07 L 153.796 69.07 C 152.22 70.997 149.837 72.08 147.349 72 C 141.212 72 139.673 69.13 139.673 64.79 L 139.673 54 L 145.44 54 L 145.44 63.89 C 145.44 66.77 146.44 68.19 149.138 68.19 C 152.276 68.19 153.616 66.74 153.616 63.19 L 153.616 54 L 159.383 54 L 159.383 71.51" style="fill:#fff;"/>
    <polyline points="171.166 47.32 177.503 47.32 189.616 63.55 189.696 63.55 189.696 47.32 195.673 47.32 195.673 71.51 189.296 71.51 177.213 55.32 177.143 55.32 177.143 71.51 171.166 71.51 171.166 47.32" style="fill:#fff;"/>
    <path d="M 207.986 53.53 C 214.612 53.53 218.88 57.18 218.88 62.77 C 218.88 68.36 214.612 72 207.986 72 C 201.359 72 197.142 68.35 197.142 62.79 C 197.142 57.23 201.409 53.55 207.986 53.55 M 207.986 68.38 C 211.984 68.38 213.103 65.57 213.103 62.79 C 213.103 60.01 211.934 57.16 207.986 57.16 C 204.038 57.16 202.889 60 202.889 62.77 C 202.889 65.54 204.088 68.36 207.986 68.36 Z" style="fill:#fff;"/>
    <path d="M 220.179 54 L 225.676 54 L 225.676 57.25 L 225.746 57.25 C 226.806 55.05 229.654 53.53 232.452 53.53 C 232.877 53.531 233.3 53.584 233.712 53.69 L 233.712 58.16 C 233.028 58.047 232.336 57.99 231.643 57.99 C 227.415 57.99 225.956 60.53 225.956 63.62 L 225.956 71.51 L 220.179 71.51 L 220.179 54" style="fill:#fff;"/>
    <path d="M 249.543 69.28 L 249.463 69.28 C 248.124 71.17 245.765 71.98 243.077 71.98 C 236.74 71.98 233.662 67.45 233.662 62.6 C 233.662 57.75 236.79 53.53 242.967 53.53 C 245.336 53.413 247.633 54.368 249.223 56.13 L 249.223 56.13 L 249.223 47.32 L 255 47.32 L 255 71.51 L 249.513 71.51 L 249.513 69.28 M 244.516 57.14 C 240.738 57.14 239.429 59.86 239.429 62.74 C 239.429 65.62 240.938 68.36 244.516 68.36 C 248.334 68.36 249.513 65.58 249.513 62.7 C 249.513 59.82 248.244 57.14 244.506 57.14 Z" style="fill:#fff;"/>
    <polygon points="319.212 53.87 310.971 0 303.68 53.88 279 53.88 299.789 65.19 293.015 85.86 311.141 71.52 334.424 104 322.652 65.19 344 53.87 319.212 53.87" style="fill:#fff;"/>
</svg>
